<?xml version="1.0" encoding="UTF-8"?>
<svg version="1.1" xmlns="http://www.w3.org/2000/svg" width="2891" height="1970">
<path d="M0 0 C262.68 0 525.36 0 796 0 C796 99.99 796 199.98 796 303 C648.16 303 500.32 303 348 303 C348 405.3 348 507.6 348 613 C495.84 613 643.68 613 796 613 C796 712.66 796 812.32 796 915 C533.32 915 270.64 915 0 915 C0 613.05 0 311.1 0 0 Z " fill="#D20000" transform="translate(1446,639)"/>
<path d="M0 0 C512.82 0 1025.64 0 1554 0 C1554 99.66 1554 199.32 1554 302 C1041.18 302 528.36 302 0 302 C0 202.34 0 102.68 0 0 Z " fill="#D20000" transform="translate(688,0)"/>
<path d="M0 0 C130.02 0 260.04 0 394 0 C394 301.95 394 603.9 394 915 C263.98 915 133.96 915 0 915 C0 613.05 0 311.1 0 0 Z " fill="#000000" transform="translate(688,639)"/>
<path d="M0 0 C29 0 29 0 36.3125 6.375 C38.8515625 10.26171875 38.8515625 10.26171875 39.95019531 12.20068359 C41.43841603 14.75142469 43.28704956 16.93390072 45.1875 19.1875 C45.81785156 19.98414063 46.44820312 20.78078125 47.09765625 21.6015625 C53.55354448 29.74101911 60.22901173 37.70969456 66.83520508 45.72729492 C71.56976372 51.47433947 76.28918786 57.23346913 81 63 C82.49985696 64.83345036 83.9998594 66.66678171 85.5 68.5 C90 74 94.5 79.5 99 85 C99.33 56.95 99.66 28.9 100 0 C111.55 0 123.1 0 135 0 C135 48.51 135 97.02 135 147 C106 147 106 147 99.6875 142.125 C98.38926722 140.12653931 97.15599368 138.08397027 96 136 C94.67484704 134.31017316 93.32107506 132.64233528 91.9375 131 C91.28910156 130.17628906 90.64070313 129.35257813 89.97265625 128.50390625 C83.51444776 120.30645745 76.79008702 112.31309555 70.15380859 104.25952148 C66.22991608 99.49676066 62.31697724 94.72528673 58.4140625 89.9453125 C56.47659626 87.58147829 54.53325225 85.22289594 52.5859375 82.8671875 C51.66844727 81.75633789 51.66844727 81.75633789 50.73242188 80.62304688 C49.53428385 79.17293451 48.3351393 77.72365291 47.13476562 76.27539062 C42.98627989 71.25253906 39.0039539 66.14794073 35 61 C34.67 89.38 34.34 117.76 34 147 C22.78 147 11.56 147 0 147 C0 98.49 0 49.98 0 0 Z " fill="#000000" transform="translate(2583,1820)"/>
<path d="M0 0 C29 0 29 0 35.3125 4.875 C36.61073278 6.87346069 37.84400632 8.91602973 39 11 C40.32515296 12.68982684 41.67892494 14.35766472 43.0625 16 C43.70445313 16.81597656 44.34640625 17.63195313 45.0078125 18.47265625 C48.60485092 23.03595793 52.31449536 27.50809434 56 32 C57.50028317 33.83310162 59.00028408 35.66643427 60.5 37.5 C61.2425 38.4075 61.985 39.315 62.75 40.25 C78.5 59.5 78.5 59.5 80.74609375 62.24609375 C82.25798227 64.09337522 83.77101749 65.93971875 85.28515625 67.78515625 C86.03667969 68.70167969 86.78820313 69.61820313 87.5625 70.5625 C88.22378906 71.36816406 88.88507813 72.17382812 89.56640625 73.00390625 C93.06894098 77.31601562 96.52959344 81.6619918 100 86 C100.33 57.62 100.66 29.24 101 0 C112.22 0 123.44 0 135 0 C135 48.51 135 97.02 135 147 C106 147 106 147 98.875 140.875 C97.60496121 138.9328176 96.33371073 136.9883071 95.17871094 134.97558594 C93.2526614 131.7474184 90.86411622 128.91343897 88.5 126 C87.59633679 124.83956797 86.6939962 123.67810478 85.79296875 122.515625 C82.41560182 118.2173763 78.84172038 114.09458517 75.26513672 109.9621582 C71.8301692 105.98779257 68.51169188 101.9418534 65.25390625 97.8203125 C62.22909015 94.03536063 59.14605203 90.29965755 56.0625 86.5625 C55.45631836 85.82765381 54.85013672 85.09280762 54.22558594 84.33569336 C53.03504269 82.89253754 51.84445145 81.4494213 50.65380859 80.00634766 C45.73125501 74.03446319 40.83468201 68.04335251 36 62 C35.67 90.05 35.34 118.1 35 147 C23.45 147 11.9 147 0 147 C0 98.49 0 49.98 0 0 Z " fill="#000000" transform="translate(1882,1820)"/>
<path d="M0 0 C9.57 0 19.14 0 29 0 C39.16103726 11.2900414 39.16103726 11.2900414 43.3125 16.75 C47.61936936 22.32422935 52.11293011 27.69884734 56.72314453 33.02368164 C60.27499541 37.13271971 63.70862068 41.3175121 67.078125 45.578125 C70.66376736 50.09661741 74.34123694 54.54068708 78 59 C79.50028317 60.83310162 81.00028408 62.66643427 82.5 64.5 C84.80773701 67.32101652 87.11600166 70.14159301 89.42578125 72.9609375 C90.21339844 73.92257812 91.00101563 74.88421875 91.8125 75.875 C92.52019531 76.73867187 93.22789063 77.60234375 93.95703125 78.4921875 C95.98605773 80.98288539 97.99313136 83.4914142 100 86 C100.33 57.62 100.66 29.24 101 0 C112.22 0 123.44 0 135 0 C135 48.51 135 97.02 135 147 C106 147 106 147 98.75 140.6875 C96.21484375 136.8046875 96.21484375 136.8046875 95.09716797 134.84667969 C93.45796884 132.08768944 91.40010129 129.74158076 89.3125 127.3125 C87.87411798 125.54238303 86.43660908 123.77155618 85 122 C83.500855 120.16596746 82.00084678 118.33264019 80.5 116.5 C78.30774854 113.8210008 76.11580532 111.14175792 73.92578125 108.4609375 C69.29676154 102.79659175 64.65179622 97.14564812 60 91.5 C52.01012808 81.80128079 52.01012808 81.80128079 48.125 77.0625 C47.50882813 76.31097656 46.89265625 75.55945312 46.2578125 74.78515625 C42.8170572 70.54076434 39.4132402 66.26655025 36 62 C35.67 90.05 35.34 118.1 35 147 C23.45 147 11.9 147 0 147 C0 98.49 0 49.98 0 0 Z " fill="#000000" transform="translate(1466,1820)"/>
<path d="M0 0 C9.57 0 19.14 0 29 0 C37.98461538 10.10769231 37.98461538 10.10769231 41.4375 14.375 C42.18902344 15.30054688 42.94054687 16.22609375 43.71484375 17.1796875 C44.46894531 18.11039063 45.22304688 19.04109375 46 20 C47.49900948 21.83414331 48.99900516 23.66748108 50.5 25.5 C75.25 55.75 75.25 55.75 100 86 C100.33 57.62 100.66 29.24 101 0 C112.22 0 123.44 0 135 0 C135 48.51 135 97.02 135 147 C125.43 147 115.86 147 106 147 C97.01538462 136.89230769 97.01538462 136.89230769 93.5625 132.625 C92.81097656 131.69945312 92.05945313 130.77390625 91.28515625 129.8203125 C90.53105469 128.88960937 89.77695312 127.95890625 89 127 C87.50099052 125.16585669 86.00099484 123.33251892 84.5 121.5 C82.30774854 118.8210008 80.11580532 116.14175792 77.92578125 113.4609375 C73.29676163 107.79659187 68.65181687 102.14563098 64 96.5 C54.28371619 84.70643285 44.63604984 72.85975364 35 61 C34.67 89.38 34.34 117.76 34 147 C22.78 147 11.56 147 0 147 C0 98.49 0 49.98 0 0 Z " fill="#000000" transform="translate(236,1820)"/>
<path d="M0 0 C29 0 29 0 37.25 7.8125 C40.33984375 12.52734375 40.33984375 12.52734375 41.70654297 14.85888672 C43.48613503 17.80471955 45.56829107 20.26624952 47.8125 22.875 C49.20848429 24.58320998 50.60432044 26.29154103 52 28 C53.49985696 29.83345036 54.9998594 31.66678171 56.5 33.5 C58.69225146 36.1789992 60.88419468 38.85824208 63.07421875 41.5390625 C67.70323902 47.20340893 72.34833328 52.85424455 77 58.5 C78.20836242 59.96742397 79.41669628 61.43487145 80.625 62.90234375 C82.64399807 65.35438755 84.66467469 67.80501949 86.6875 70.25390625 C87.450625 71.18074219 88.21375 72.10757812 89 73.0625 C89.639375 73.83722656 90.27875 74.61195312 90.9375 75.41015625 C93.7013387 78.88065826 96.33805562 82.45074083 99 86 C99.33 57.62 99.66 29.24 100 0 C111.22 0 122.44 0 134 0 C134 48.51 134 97.02 134 147 C105 147 105 147 96.75 139.1875 C93.640625 134.44921875 93.640625 134.44921875 92.27148438 132.11474609 C90.60335421 129.34029458 88.61094136 126.94884384 86.5 124.5 C85.8090625 123.654375 85.118125 122.80875 84.40625 121.9375 C81.27823847 118.11888852 78.13915083 114.30945577 75 110.5 C70.45786868 104.98798441 65.92539199 99.4683902 61.40625 93.9375 C57.67411193 89.3813834 53.92683441 84.83775105 50.1809082 80.29296875 C45.96432697 75.1756746 41.76249035 70.04675341 37.57421875 64.90625 C36.14127035 63.1096146 36.14127035 63.1096146 35 62 C34.67 90.05 34.34 118.1 34 147 C22.78 147 11.56 147 0 147 C0 98.49 0 49.98 0 0 Z " fill="#000000" transform="translate(62,1820)"/>
<path d="M0 0 C2.12142857 1.63051948 4.15376043 3.31537791 6.17578125 5.06640625 C7.00078125 5.70578125 7.82578125 6.34515625 8.67578125 7.00390625 C21.22707986 17.3587276 29.16711941 35.1226529 31.17578125 51.06640625 C33.0225139 71.95756932 29.23592106 91.69783487 16.17578125 108.50390625 C14.8599347 110.03989442 13.52789614 111.56224631 12.17578125 113.06640625 C11.65757812 113.67742187 11.139375 114.2884375 10.60546875 114.91796875 C-2.89168156 129.77161658 -23.58743516 136.66061503 -43.07421875 137.87890625 C-67.23342586 138.99094707 -89.67193202 132.41892652 -107.87890625 115.953125 C-121.97306035 102.54879994 -128.80297157 84.25681733 -129.29736328 65.13989258 C-129.45601181 44.0295419 -124.90974713 25.68531938 -110.02636719 10.14306641 C-81.30704145 -18.64515421 -33.61666439 -23.01555861 0 0 Z M-81.82421875 28.25390625 C-90.32733494 37.51707752 -94.22203671 48.97689042 -94.13671875 61.37890625 C-94.1318042 62.22050293 -94.12688965 63.06209961 -94.12182617 63.92919922 C-93.88501351 76.48391345 -89.35022061 86.94332505 -80.8359375 96.21484375 C-71.53296797 104.77718852 -59.2964482 108.41920657 -46.86328125 108.28515625 C-33.30920996 107.30954186 -23.01521988 101.90401047 -13.82421875 92.06640625 C-5.52257677 80.8061078 -2.94349954 68.9017044 -3.82421875 55.06640625 C-5.94229105 42.52474978 -11.89788404 30.92166641 -22.24609375 23.27734375 C-41.30081775 11.26458297 -65.00312719 12.73108685 -81.82421875 28.25390625 Z " fill="#000000" transform="translate(530.82421875,1831.93359375)"/>
<path d="M0 0 C94.97539543 0 94.97539543 0 113 16 C124.54144888 27.69928066 127.29366825 40.74435266 127.31689453 56.55371094 C127.21761938 63.99812194 126.33942353 70.25873381 123 77 C122.57589844 77.8765625 122.15179687 78.753125 121.71484375 79.65625 C116.52083477 89.26299642 108.66765058 95.24616709 99 100 C105.93729589 111.30974647 113.71520309 122.02343817 121.44140625 132.80078125 C121.99546143 133.57728027 122.5495166 134.3537793 123.12036133 135.15380859 C124.19030433 136.65317142 125.26424013 138.14969459 126.3425293 139.64306641 C130 144.7746998 130 144.7746998 130 147 C97.51443749 149.98442831 97.51443749 149.98442831 89.14990234 145.45751953 C84.84870891 141.34452228 82.61608646 136.21835583 80.32666016 130.80322266 C77.93627465 125.75235656 74.49824396 121.41568236 71.1875 116.9375 C69.98561656 115.26474339 68.7909013 113.5867986 67.60546875 111.90234375 C67.10168701 111.19585693 66.59790527 110.48937012 66.07885742 109.76147461 C65 108 65 108 65 106 C55.1 106 45.2 106 35 106 C35 119.53 35 133.06 35 147 C23.45 147 11.9 147 0 147 C0 98.49 0 49.98 0 0 Z M35 29 C35 45.5 35 62 35 79 C41.80625 79.061875 41.80625 79.061875 48.75 79.125 C50.85713379 79.15231201 50.85713379 79.15231201 53.00683594 79.18017578 C69.29163467 79.26569346 69.29163467 79.26569346 84 73 C89.89194647 67.10805353 92.14538328 61.8532687 92.5 53.6875 C92.31311598 47.18393604 91.03348732 42.17521691 87 37 C79.7894952 30.51728447 71.9133928 28.67398263 62.44140625 28.8046875 C61.7407605 28.80670166 61.04011475 28.80871582 60.3182373 28.81079102 C57.73292371 28.82115412 55.14770438 28.84907569 52.5625 28.875 C46.766875 28.91625 40.97125 28.9575 35 29 Z " fill="#000000" transform="translate(2349,1820)"/>
<path d="M0 0 C11.55 0 23.1 0 35 0 C35 19.14 35 38.28 35 58 C56.45 58 77.9 58 100 58 C100 38.86 100 19.72 100 0 C111.55 0 123.1 0 135 0 C135 48.51 135 97.02 135 147 C123.45 147 111.9 147 100 147 C100 127.2 100 107.4 100 87 C78.55 87 57.1 87 35 87 C35 106.8 35 126.6 35 147 C23.45 147 11.9 147 0 147 C0 98.49 0 49.98 0 0 Z " fill="#000000" transform="translate(1031,1820)"/>
<path d="M0 0 C3.52760417 3.16651083 6.81147773 6.49403636 10 10 C5.71579052 15.24815662 1.16442369 19.63231826 -4 24 C-5.50222108 25.30995729 -7.00229716 26.62237931 -8.5 27.9375 C-9.66666667 28.95833333 -10.83333333 29.97916667 -12 31 C-14.7921905 29.72700132 -16.76190951 28.3967365 -18.9375 26.25 C-28.90691187 17.61407634 -41.68978311 14.59043037 -54.640625 15.16015625 C-65.41768096 16.3826637 -74.97075493 19.6046427 -83 27 C-83.66 27 -84.32 27 -85 27 C-85.26941406 27.56332031 -85.53882812 28.12664062 -85.81640625 28.70703125 C-87.06651453 31.12885818 -88.48027945 33.38486906 -89.9375 35.6875 C-97.35476508 48.07975995 -98.33347176 60.99941862 -95 75 C-93.95644137 78.20057934 -92.63505718 81.06124274 -91 84 C-90.60167969 84.74894531 -90.20335938 85.49789063 -89.79296875 86.26953125 C-83.81233808 96.38662117 -74.0861661 101.89659104 -63 105 C-50.28066418 108.24749 -37.13245854 105.04415285 -25 101 C-25 86.81 -25 72.62 -25 58 C-14.44 58 -3.88 58 7 58 C7.21014913 65.69846307 7.41032431 73.38647528 7.51750183 81.08531952 C7.57018803 84.67052078 7.64048554 88.25333518 7.75439453 91.8371582 C7.86355076 95.29332257 7.92293618 98.74718327 7.94877243 102.20493889 C7.97608199 104.15705899 8.05407906 106.10825851 8.13296509 108.05897522 C8.13844423 116.76916313 8.13844423 116.76916313 4.83067322 120.34538269 C2.28873042 122.15435441 -0.20296708 123.62508781 -3 125 C-4.15886719 125.61230469 -5.31773437 126.22460938 -6.51171875 126.85546875 C-32.25372228 137.65254526 -60.404597 140.86950793 -87 131 C-105.32814247 122.74918672 -120.30798778 108.80831143 -127.81396484 89.95556641 C-130.51549939 82.52070736 -132.791847 74.95144454 -133 67 C-133.05027344 66.06542969 -133.10054687 65.13085938 -133.15234375 64.16796875 C-133.79662087 43.26761888 -127.36417275 23.51448439 -113.0546875 7.96484375 C-83.22737481 -20.55823283 -33.63456078 -23.62534832 0 0 Z " fill="#000000" transform="translate(2881,1833)"/>
<path d="M0 0 C10.0148473 7.88438565 10.0148473 7.88438565 11.33203125 11.8359375 C6.05599825 17.20927439 0.76460141 22.48508978 -4.9765625 27.36328125 C-6.61580664 28.79052153 -8.15022351 30.28106088 -9.66796875 31.8359375 C-13.08750363 30.2931706 -15.83036682 28.2498282 -18.79296875 25.9609375 C-30.20036507 17.6537043 -42.8882093 14.7434913 -56.98046875 16.4609375 C-70.21325811 18.83032208 -80.12442587 24.52132593 -88.1640625 35.43359375 C-95.28614361 46.81042462 -96.39460118 60.52198887 -93.984375 73.5234375 C-90.92340611 84.29398364 -84.98967674 94.07553372 -75.45703125 100.2734375 C-60.64035256 108.32910747 -45.55738751 108.11234897 -29.66796875 103.8359375 C-28.01796875 103.1759375 -26.36796875 102.5159375 -24.66796875 101.8359375 C-24.33796875 87.6459375 -24.00796875 73.4559375 -23.66796875 58.8359375 C-13.10796875 58.8359375 -2.54796875 58.8359375 8.33203125 58.8359375 C8.33203125 78.9659375 8.33203125 99.0959375 8.33203125 119.8359375 C-9.59290723 130.07875949 -25.94132848 136.7963568 -46.66796875 137.8359375 C-47.36664062 137.8771875 -48.0653125 137.9184375 -48.78515625 137.9609375 C-70.81805458 138.6260816 -91.20762156 131.68246636 -108 117.41015625 C-122.56175748 103.36008571 -130.59529236 85.51201402 -131.14111328 65.31811523 C-131.30768463 44.10752492 -126.85205204 25.56009502 -111.87011719 9.91235352 C-83.59956491 -18.42117292 -32.93726701 -24.37038496 0 0 Z " fill="#000000" transform="translate(1762.66796875,1832.1640625)"/>
<path d="M0 0 C36.63 0 73.26 0 111 0 C111 9.24 111 18.48 111 28 C85.59 28 60.18 28 34 28 C34 38.23 34 48.46 34 59 C56.44 59 78.88 59 102 59 C102 67.91 102 76.82 102 86 C79.56 86 57.12 86 34 86 C34 96.89 34 107.78 34 119 C60.4 119 86.8 119 114 119 C114 128.24 114 137.48 114 147 C76.38 147 38.76 147 0 147 C0 98.49 0 49.98 0 0 Z " fill="#000000" transform="translate(2203,1820)"/>
<path d="M0 0 C36.63 0 73.26 0 111 0 C111 9.24 111 18.48 111 28 C85.59 28 60.18 28 34 28 C34 38.23 34 48.46 34 59 C56.44 59 78.88 59 102 59 C102 67.91 102 76.82 102 86 C79.56 86 57.12 86 34 86 C34 96.89 34 107.78 34 119 C60.4 119 86.8 119 114 119 C114 128.24 114 137.48 114 147 C76.38 147 38.76 147 0 147 C0 98.49 0 49.98 0 0 Z " fill="#000000" transform="translate(2057,1820)"/>
<path d="M0 0 C36.63 0 73.26 0 111 0 C111 9.24 111 18.48 111 28 C85.59 28 60.18 28 34 28 C34 38.23 34 48.46 34 59 C56.44 59 78.88 59 102 59 C102 67.91 102 76.82 102 86 C79.56 86 57.12 86 34 86 C34 96.89 34 107.78 34 119 C60.4 119 86.8 119 114 119 C114 128.24 114 137.48 114 147 C76.38 147 38.76 147 0 147 C0 98.49 0 49.98 0 0 Z " fill="#000000" transform="translate(726,1820)"/>
<path d="M0 0 C9.93026071 8.02812626 9.93026071 8.02812626 12 13 C4.73110732 19.74085874 -2.55188642 26.45643768 -10 33 C-10.928125 32.154375 -11.85625 31.30875 -12.8125 30.4375 C-24.00767744 20.91257081 -36.24525058 15.07237489 -51.16796875 16.25 C-64.82447323 18.04311665 -75.45487494 23.03522333 -84.39453125 33.65234375 C-92.51583775 45.52802552 -93.63966781 60.14762236 -91.5390625 74.05078125 C-89.27557514 82.3990552 -84.57255911 90.36637791 -78 96 C-77.43796875 96.49113281 -76.8759375 96.98226563 -76.296875 97.48828125 C-66.48580538 105.52458421 -54.42808521 107.90503611 -42 107 C-30.1939884 104.97526157 -22.72930582 101.176327 -14.296875 92.73046875 C-12 91 -12 91 -10.04321289 91.23486328 C-6.62473007 92.51500728 -4.27009411 95.19097994 -1.6875 97.6875 C-0.53209879 98.78084558 0.62414418 99.87330235 1.78125 100.96484375 C2.33425781 101.48933105 2.88726563 102.01381836 3.45703125 102.55419922 C6.21799898 105.14129588 9.09965668 107.57180559 12 110 C6.78480694 121.612154 -6.4479762 128.355333 -17.6875 132.875 C-39.44185074 140.58343819 -65.23279421 139.89653591 -86.375 130.5 C-103.75699358 121.64502214 -117.46568193 107.75286518 -124.35546875 89.38671875 C-130.96601873 68.31409914 -130.439535 44.97295416 -120.3125 25.1875 C-116.72312185 18.62632541 -112.36292769 13.22772783 -107 8 C-106.26394531 7.23171875 -105.52789063 6.4634375 -104.76953125 5.671875 C-78.14899939 -20.54734231 -29.62037147 -20.96934235 0 0 Z " fill="#000000" transform="translate(991,1832)"/>
<path d="M0 0 C42.24 0 84.48 0 128 0 C128 9.57 128 19.14 128 29 C112.82 29 97.64 29 82 29 C82 67.94 82 106.88 82 147 C70.45 147 58.9 147 47 147 C47 108.06 47 69.12 47 29 C31.49 29 15.98 29 0 29 C0 19.43 0 9.86 0 0 Z " fill="#000000" transform="translate(574,1820)"/>
<path d="M0 0 C35.97 0 71.94 0 109 0 C109 9.9 109 19.8 109 30 C81.61 30 54.22 30 26 30 C26 37.92 26 45.84 26 54 C53.39 54 80.78 54 109 54 C109 63.9 109 73.8 109 84 C73.03 84 37.06 84 0 84 C0 56.28 0 28.56 0 0 Z " fill="#D20000" transform="translate(1325,1883)"/>
<path d="M0 0 C11.55 0 23.1 0 35 0 C35 48.51 35 97.02 35 147 C23.45 147 11.9 147 0 147 C0 98.49 0 49.98 0 0 Z " fill="#000000" transform="translate(2508,1820)"/>
<path d="M0 0 C11.22 0 22.44 0 34 0 C34 48.51 34 97.02 34 147 C22.78 147 11.56 147 0 147 C0 98.49 0 49.98 0 0 Z " fill="#000000" transform="translate(1808,1820)"/>
<path d="M0 0 C11.22 0 22.44 0 34 0 C34 33.33 34 66.66 34 101 C22.78 101 11.56 101 0 101 C0 67.67 0 34.34 0 0 Z " fill="#000000" transform="translate(0,1866)"/>
<path d="M0 0 C35.97 0 71.94 0 109 0 C109 8.58 109 17.16 109 26 C73.03 26 37.06 26 0 26 C0 17.42 0 8.84 0 0 Z " fill="#D20000" transform="translate(1325,1816)"/>
<path d="M0 0 C11.22 0 22.44 0 34 0 C34 11.22 34 22.44 34 34 C22.78 34 11.56 34 0 34 C0 22.78 0 11.56 0 0 Z " fill="#D20000" transform="translate(0,1816)"/>
</svg>
